<svg width="1082" height="130" viewBox="0 0 1082 130" fill="none" xmlns="http://www.w3.org/2000/svg">
<path fill-rule="evenodd" clip-rule="evenodd" d="M637.276 129.999L637.276 21.4089L643.635 21.4089L643.635 129.999L637.276 129.999Z" fill="white"/>
<path d="M746.904 97.7331C744.421 98.3873 741.334 99.2037 736.588 99.2136C736.588 99.2136 736.558 99.2136 736.543 99.2136C736.528 99.2136 736.513 99.2136 736.498 99.2136C731.757 99.2037 728.664 98.3873 726.182 97.7331C724.335 97.2462 722.742 96.8232 720.865 96.8232C717.43 96.8232 713.642 97.92 711.89 98.4955C711.919 98.6578 711.954 98.8103 711.989 98.9529C711.979 98.9627 711.974 98.9676 711.974 98.9676C711.974 98.9676 713.295 104.437 718.88 109.011C724.464 113.585 736.419 121.764 736.419 121.764C736.419 121.764 749.614 112.375 751.813 110.811C758.198 105.721 760.144 101.673 760.739 99.6808L760.764 99.6956C760.764 99.6956 760.978 99.1201 761.092 98.4611C759.295 97.8758 755.591 96.8232 752.23 96.8232C750.354 96.8232 748.76 97.2462 746.914 97.7331H746.904Z" fill="white"/>
<path d="M746.904 91.1426C744.422 91.7967 741.334 92.6132 736.588 92.623C736.588 92.623 736.558 92.623 736.543 92.623C736.528 92.623 736.513 92.623 736.498 92.623C731.757 92.6132 728.664 91.7967 726.182 91.1426C724.336 90.6556 722.742 90.2327 720.865 90.2327C717.316 90.2327 713.389 91.4032 711.721 91.9639V95.1609C713.876 94.5018 717.455 93.5968 720.865 93.5968C723.169 93.5968 725.04 94.0887 727.021 94.6149C729.449 95.2543 732.199 95.9822 736.543 95.9871C740.887 95.9822 743.637 95.2543 746.065 94.6149C748.046 94.0936 749.917 93.5968 752.221 93.5968C755.567 93.5968 759.081 94.4674 761.246 95.1215V91.9246C759.518 91.3541 755.686 90.2327 752.221 90.2327C750.344 90.2327 748.75 90.6556 746.904 91.1426Z" fill="white"/>
<path d="M761.246 59.6258L746.224 85.6095C746.164 85.6243 746.104 85.639 746.045 85.6587C745.131 85.8997 744.168 86.1554 743.096 86.3768L760.323 56.5813H757.339L739.819 86.8834C738.971 86.967 738.052 87.026 737.044 87.0407L754.658 56.5813H751.675L734.101 86.9768C733.182 86.9178 732.343 86.8293 731.564 86.7161L748.989 56.5764H711.721V88.5654C713.876 87.9064 717.455 87.0014 720.865 87.0014C723.169 87.0014 725.04 87.4932 727.021 88.0195C729.449 88.6589 732.199 89.3868 736.543 89.3917C740.887 89.3868 743.637 88.6589 746.065 88.0195C748.046 87.4982 749.917 87.0014 752.221 87.0014C755.567 87.0014 759.081 87.8719 761.246 88.5261V69.7232L752.608 84.6603C752.434 84.6603 752.255 84.6553 752.082 84.6553C751.292 84.6553 750.548 84.7144 749.833 84.8176L761.246 65.0803V59.6258ZM725.949 71.9906L725.13 75.7531L724.271 71.9906L720.374 71.1594L724.251 70.2741L725.11 66.4672L725.949 70.3282L729.732 71.1348L725.949 71.9906Z" fill="white"/>
<path d="M1054.69 121.031C1066.22 121.031 1075.49 116.157 1081.16 107.904L1075.87 104.26C1071.23 110.909 1064.04 114.947 1054.69 114.947C1039.65 114.947 1028.78 103.606 1028.78 88.4275C1028.78 73.2494 1039.65 61.9175 1054.69 61.9175C1063.95 61.9175 1070.86 65.8522 1075.02 71.9362L1080.22 68.1983C1074.73 60.0486 1066.03 55.8286 1054.69 55.8286C1036.43 55.8286 1021.69 69.2262 1021.69 88.4275C1021.69 107.629 1036.43 121.036 1054.69 121.036" fill="white"/>
<path d="M993.898 55.927H992.761L966.107 120.274H972.819L977.069 109.596H1009.59L1013.94 120.274H1021.12L993.898 55.927ZM979.432 103.792L990.775 75.4972C992.002 72.5019 993.332 67.913 993.332 67.913C993.332 67.913 994.558 72.5019 995.784 75.4972L1007.14 103.792H979.427H979.432Z" fill="white"/>
<path d="M930.741 56.5813H915.143V120.274H930.741C952.296 120.274 965.531 107.727 965.531 88.4228C965.531 69.1182 952.197 56.5813 930.741 56.5813ZM930.269 114.185H921.954V62.6751H930.269C949.273 62.6751 958.348 73.2595 958.348 88.4277C958.348 103.596 949.273 114.19 930.269 114.19V114.185Z" fill="white"/>
<path d="M864.094 120.274H904.558V114.279H870.905V98.3579H899.733V92.4607H870.905V62.5768H903.233V56.5813H864.094V120.274Z" fill="white"/>
<path d="M835.424 55.927H834.287L816.708 101.26C815.666 103.881 814.722 107.535 814.722 107.535C814.722 107.535 813.864 103.881 812.826 101.26L795.53 55.927H794.393L773.225 120.274H780.121L793.549 77.8481C794.398 75.1283 795.341 70.9083 795.341 70.9083C795.341 70.9083 796.379 75.1283 797.421 77.8481L814.161 120.933H815.293L832.033 77.8481C833.076 75.1283 834.113 70.9083 834.113 70.9083C834.113 70.9083 835.057 75.0348 835.906 77.8481L849.424 120.274H856.701L835.429 55.927H835.424Z" fill="white"/>
<path d="M201.05 42.95H219.298L238.423 103.575H239.751L258.739 42.95H277.426L251.086 120.06H227.54L201.05 42.95Z" fill="white"/>
<path d="M370.531 42.9495H387.89V51.7804H389.218C392.599 45.8931 399.663 41.0464 409.958 41.0464C426.879 41.0464 437.625 53.6972 437.625 69.5928V120.059H420.266V73.7002C420.266 64.13 413.504 57.5171 404.674 57.5171C395.104 57.5171 387.903 64.8693 387.903 74.5902V120.059H370.545V42.9495H370.531Z" fill="white"/>
<path d="M449.33 96.9481V58.2564V42.9494V21.3171H466.839V42.9494H488.62V58.2564H466.839V96.8111C466.839 102.26 469.043 104.615 474.341 104.615H487.73V120.073H474.191C459.187 120.073 449.33 113.296 449.33 96.9618V96.9481Z" fill="white"/>
<path d="M495.136 81.6549C495.136 57.3801 512.933 41.0464 533.687 41.0464C557.233 41.0464 571.498 58.1195 571.498 81.0662V85.9266H513.083C513.234 98.8786 521.612 107.107 534.275 107.107C542.804 107.107 550.909 102.698 553.701 94.1551L569.595 97.975C564.599 114.021 550.471 121.962 534.426 121.962C510.879 121.962 495.136 105.19 495.136 81.6412V81.6549ZM553.852 73.2621C552.976 62.8156 544.283 56.189 533.7 56.189C523.118 56.189 514.274 63.9931 513.248 73.2621H553.852Z" fill="white"/>
<path d="M100.511 28.656C95.6103 19.6608 88.5189 12.5686 79.4014 7.54393C70.2976 2.5329 59.51 0 47.3397 0H0V35.3373L29.6249 58.8454C30.3916 59.4478 30.3916 60.5979 29.6249 61.2003L0.0821387 84.6535L0 84.722V120.059H47.3534C59.5237 120.059 70.3113 117.526 79.4151 112.515C88.5189 107.504 95.6239 100.371 100.525 91.3212C105.412 82.2712 107.904 71.7426 107.904 60.0228C107.904 48.303 105.426 37.6375 100.525 28.6423L100.511 28.656ZM18.6046 89.4455L50.7074 63.9522C53.1305 62.0218 53.1442 58.3525 50.7348 56.4083L18.6046 30.6001V16.5665H47.723C60.7421 16.5665 70.9548 20.5781 78.1146 28.4917C85.1786 36.3094 88.7653 46.9202 88.7653 60.0228C88.7653 73.1254 85.1786 83.7362 78.1146 91.554C70.9684 99.4676 60.7421 103.479 47.723 103.479H18.6046V89.4455Z" fill="white"/>
<path d="M174.286 42.9635H192.179V120.059H174.286V111.982C166.948 118.841 159.063 122.277 150.616 122.277C139.952 122.277 131.149 118.43 124.181 110.722C117.268 102.863 113.818 93.0464 113.818 81.2718C113.818 69.4973 117.268 60.0913 124.181 52.3831C131.095 44.6749 139.747 40.8276 150.137 40.8276C159.104 40.8276 167.154 44.5243 174.272 51.9039V42.9635H174.286ZM132.025 81.2718C132.025 88.6652 134.01 94.6757 137.967 99.317C142.033 104.013 147.153 106.368 153.327 106.368C159.925 106.368 165.251 104.095 169.317 99.5635C173.383 94.8673 175.409 88.9116 175.409 81.6689C175.409 74.4262 173.383 68.4841 169.317 63.7743C165.251 59.1877 159.98 56.8876 153.491 56.8876C147.372 56.8876 142.252 59.2151 138.131 63.8565C134.065 68.5526 132.039 74.3577 132.039 81.2718H132.025Z" fill="white"/>
<path d="M338.592 42.9635H356.485V120.059H338.592V111.982C331.254 118.841 323.369 122.277 314.922 122.277C304.258 122.277 295.455 118.43 288.487 110.722C281.574 102.863 278.124 93.0464 278.124 81.2718C278.124 69.4973 281.574 60.0913 288.487 52.3831C295.401 44.6749 304.053 40.8276 314.443 40.8276C323.41 40.8276 331.46 44.5243 338.578 51.9039V42.9635H338.592ZM296.318 81.2718C296.318 88.6652 298.303 94.6757 302.259 99.317C306.325 104.013 311.445 106.368 317.619 106.368C324.218 106.368 329.543 104.095 333.609 99.5635C337.675 94.8673 339.701 88.9116 339.701 81.6689C339.701 74.4262 337.675 68.4841 333.609 63.7743C329.543 59.1877 324.273 56.8876 317.784 56.8876C311.664 56.8876 306.544 59.2151 302.423 63.8565C298.358 68.5526 296.331 74.3577 296.331 81.2718H296.318Z" fill="white"/>
</svg>
